<?xml version="1.0" standalone="no"?>
<!DOCTYPE svg PUBLIC "-//W3C//DTD SVG 20010904//EN"
 "http://www.w3.org/TR/2001/REC-SVG-20010904/DTD/svg10.dtd">
<svg version="1.0" xmlns="http://www.w3.org/2000/svg"
 width="178.000000pt" height="60.000000pt" viewBox="0 0 178.000000 60.000000"
 preserveAspectRatio="xMidYMid meet">

<g transform="translate(0.000000,60.000000) scale(0.100000,-0.100000)"
fill="#000000" stroke="none">
<path d="M266 447 c-33 -18 -71 -48 -85 -68 -16 -23 -41 -42 -66 -50 -41 -15
-58 -45 -33 -60 22 -14 33 -10 13 4 -22 17 -14 32 25 45 30 11 30 10 30 -24 0
-18 -4 -34 -10 -34 -15 0 -12 -20 3 -20 6 0 28 -29 47 -63 36 -64 65 -82 95
-57 8 6 33 21 57 33 26 13 55 40 72 66 17 25 32 39 34 33 2 -7 8 -9 14 -6 6 4
14 0 19 -7 7 -11 9 -11 9 3 0 9 8 22 18 27 15 9 14 10 -8 11 -15 0 -32 6 -40
13 -12 10 -12 9 -1 -5 7 -10 12 -18 10 -19 -35 -7 -36 -6 -35 31 l1 37 35 -9
c19 -5 41 -17 48 -26 7 -9 12 -11 12 -4 0 15 -37 39 -72 47 -22 6 -58 42 -58
58 0 3 20 2 45 -1 52 -5 58 6 20 43 -25 25 -41 30 -69 19 -27 -10 -18 -21 14
-16 29 4 60 -11 60 -29 0 -16 -43 -10 -63 9 -19 16 -20 16 -14 0 10 -29 1 -21
-22 17 -11 19 -26 35 -33 34 -7 0 -40 -15 -72 -32z m110 -34 c40 -62 57 -144
34 -158 -19 -12 -229 -10 -241 2 -18 18 0 92 30 124 20 23 89 67 138 88 1 1
19 -25 39 -56z m24 -182 c0 -27 -138 -119 -160 -106 -9 5 -60 90 -60 99 0 3
46 7 103 9 56 1 105 4 110 5 4 1 7 -2 7 -7z"/>
<path d="M230 389 c0 -5 5 -7 10 -4 6 3 10 8 10 11 0 2 -4 4 -10 4 -5 0 -10
-5 -10 -11z"/>
<path d="M201 356 c-18 -21 -27 -96 -12 -96 6 0 11 14 11 31 0 17 5 39 11 51
13 24 6 34 -10 14z"/>
<path d="M854 406 c-127 -56 -94 -246 42 -246 84 0 134 47 134 127 0 41 -28
96 -57 111 -34 19 -87 22 -119 8z m114 -58 c29 -28 30 -85 1 -122 -16 -21 -29
-26 -63 -26 -67 0 -106 54 -85 117 20 62 96 77 147 31z"/>
<path d="M1070 290 c0 -123 1 -130 20 -130 19 0 20 7 20 130 0 123 -1 130 -20
130 -19 0 -20 -7 -20 -130z"/>
<path d="M1370 285 c0 -117 1 -125 20 -125 17 0 19 8 22 66 2 51 7 70 21 78
34 21 52 -4 55 -78 3 -58 5 -66 22 -66 18 0 20 7 20 73 0 91 -16 113 -80 104
l-40 -5 0 39 c0 32 -3 39 -20 39 -19 0 -20 -7 -20 -125z"/>
<path d="M1173 316 c-22 -19 -28 -32 -28 -66 0 -55 37 -90 96 -90 55 0 89 34
89 90 0 82 -92 121 -157 66z m95 -22 c42 -29 17 -104 -35 -104 -20 0 -53 38
-53 60 0 22 33 60 53 60 7 0 23 -7 35 -16z"/>
<path d="M1595 317 c-56 -48 -25 -149 48 -155 20 -2 45 2 57 8 13 7 20 7 20 0
0 -5 7 -10 15 -10 12 0 15 17 15 90 0 73 -3 90 -15 90 -8 0 -15 -5 -15 -10 0
-7 -6 -7 -19 0 -32 17 -78 11 -106 -13z m98 -19 c28 -22 32 -63 8 -87 -12 -12
-30 -21 -41 -21 -26 0 -60 34 -60 60 0 25 34 60 58 60 10 0 26 -6 35 -12z"/>
</g>
</svg>
